HIERARCHY
ROOT Hips
{
	OFFSET 0.00000 0.00000 0.00000
	CHANNELS 6 Xposition Yposition Zposition Zrotation Yrotation Xrotation 
	JOINT LHipJoint
	{
		OFFSET 0 0 0
		CHANNELS 3 Zrotation Yrotation Xrotation
		JOINT LeftHip
		{
			OFFSET 1.49715 -1.76614 1.90432
			CHANNELS 3 Zrotation Yrotation Xrotation
			JOINT LeftKnee
			{
				OFFSET 2.35844 -6.47976 0.00000
				CHANNELS 3 Zrotation Yrotation Xrotation
				JOINT LeftAnkle
				{
					OFFSET 2.73785 -7.52219 0.00000
					CHANNELS 3 Zrotation Yrotation Xrotation
					JOINT LeftToe
					{
						OFFSET 0.14074 -0.40172 2.02264
						CHANNELS 3 Zrotation Yrotation Xrotation
						End Site
						{
							OFFSET 0.00000 -0.00000 1.04539
						}
					}
				}
			}
		}
	}
	JOINT RHipJoint
	{
		OFFSET 0 0 0
		CHANNELS 3 Zrotation Yrotation Xrotation
		JOINT RightHip
		{
			OFFSET -0.96261 -1.76614 1.90432
			CHANNELS 3 Zrotation Yrotation Xrotation
			JOINT RightKnee
			{
				OFFSET -2.38693 -6.55804 0.00000
				CHANNELS 3 Zrotation Yrotation Xrotation
				JOINT RightAnkle
				{
					OFFSET -2.65769 -7.30194 0.00000
					CHANNELS 3 Zrotation Yrotation Xrotation
					JOINT RightToe
					{
						OFFSET -0.22087 -0.60685 2.05176
						CHANNELS 3 Zrotation Yrotation Xrotation
						End Site
						{
							OFFSET -0.00011 -0.00128 1.07650
						}
					}
				}
			}
		}
	}
	JOINT lowerback
	{
		OFFSET 0 0 0
		CHANNELS 3 Zrotation Yrotation Xrotation
		JOINT Chest
		{
			OFFSET -0.03634 1.88467 0.28386
			CHANNELS 3 Zrotation Yrotation Xrotation
			JOINT Chest2
			{
				OFFSET -0.03393 1.87370 -0.16959
				CHANNELS 3 Zrotation Yrotation Xrotation
				JOINT lowerneck
				{
					OFFSET 0 0 0
					CHANNELS 3 Zrotation Yrotation Xrotation
					JOINT Neck
					{
						OFFSET -0.03729 2.05330 -0.42975
						CHANNELS 3 Zrotation Yrotation Xrotation
						JOINT Head
						{
							OFFSET 0.22896 2.10694 0.01084
							CHANNELS 3 Zrotation Yrotation Xrotation
							End Site
							{
								OFFSET 0.09101 2.14588 0.03889
							}
						}
					}
				}
				JOINT LeftCollar
				{
					OFFSET 0 0 0
					CHANNELS 3 Zrotation Yrotation Xrotation
					JOINT LeftShoulder
					{
						OFFSET 4.11898 1.88020 1.39256
CHANNELS 3 Zrotation Xrotation Yrotation
						JOINT LeftElbow
						{
OFFSET 0 -4.720960 0.000000
CHANNELS 3 Zrotation Xrotation Yrotation
							JOINT LeftWrist
							{
OFFSET 0 -3.181480 0.000000
CHANNELS 3 Zrotation Xrotation Yrotation
								JOINT lhand
								{
									OFFSET 0 0 0
CHANNELS 3 Zrotation Xrotation Yrotation
									JOINT LFingers
									{
OFFSET 0 -0.848720 0.000000
CHANNELS 3 Zrotation Xrotation Yrotation
										End Site
										{
OFFSET 0 -0.684260 0.000000
										}
									}
								}
								JOINT LThumb
								{
OFFSET 0 0.000000 0.000000
CHANNELS 3 Zrotation Xrotation Yrotation
									End Site
									{
OFFSET 0 -0.694700 0.694700
									}
								}
							}
						}
					}
				}
				JOINT RightCollar
				{
					OFFSET 0 0 0
					CHANNELS 3 Zrotation Yrotation Xrotation
					JOINT RightShoulder
					{
						OFFSET -3.95234 1.59593 0.39942
CHANNELS 3 Zrotation Xrotation Yrotation
						JOINT RightElbow
						{
OFFSET 0 -4.769180 0.000000
CHANNELS 3 Zrotation Xrotation Yrotation
							JOINT RightWrist
							{
OFFSET 0 -3.364380 -0.000510
CHANNELS 3 Zrotation Xrotation Yrotation
								JOINT rhand
								{
									OFFSET 0 0 0
CHANNELS 3 Zrotation Xrotation Yrotation
									JOINT RFingers
									{
OFFSET 0 -0.767690 0.000000
CHANNELS 3 Zrotation Xrotation Yrotation
										End Site
										{
OFFSET 0 -0.618940 0.000000
										}
									}
								}
								JOINT RThumb
								{
OFFSET 0 0.000000 0.000000
CHANNELS 3 Zrotation Xrotation Yrotation
									End Site
									{
OFFSET 0 -0.628380 0.628380
									}
								}
							}
						}
					}
				}
			}
		}
	}
}
MOTION
Frames: 9
Frame Time: .0083333
1.4542 17.5541 -0.4718 1.8063 0.2700 10.4361 0.0000 0.0000 0.0000 -22.4419 -4.1260 -22.0598 2.4596 9.7640 28.2159 1.2302 0.4821 -21.1504 0.5102 -4.5787 -12.7107 0.0000 0.0000 0.0000 1.6030 5.0414 -35.3165 -6.8157 -15.1747 48.1737 2.1589 -24.9493 -8.7985 -0.0818 -1.8451 5.0778 -1.5355 1.7381 -22.0585 -2.2664 3.2961 7.1039 -0.4288 1.3955 20.5601 -4.8290 -1.6224 24.3957 10.5253 -2.7744 1.1863 4.3706 -1.9897 -3.2337 0.0000 0.0000 0.0000 50.1405 -34.8887 15.8207 81.0800 -59.6972 52.2829 -32.9157 -79.2361 -31.7944 0.0 0.0 0.0 -7.1250 0.0 0.0 -62.6710 51.5007 14.9748 0.0000 0.0000 0.0000 -43.6248 -28.0379 -1.9222 -126.9078 -54.169 -91.3372 52.9311 -40.4883 -0.6982 0.0 0.0 0.0 7.1250 0.0 -0.0 43.2609 11.5299 54.3301
1.5267 17.5609 -0.5008 1.5849 0.3914 10.3592 0.0000 0.0000 0.0000 -22.4459 -4.0528 -22.1456 2.4563 9.7581 28.1968 1.2153 0.3743 -20.9839 0.4335 -4.2252 -11.7111 0.0000 0.0000 0.0000 2.1223 4.9166 -37.1696 -7.2707 -15.5557 49.8910 2.0020 -24.0911 -8.8253 -0.0817 -1.8438 5.0743 -1.6366 1.6993 -21.8145 -2.2264 3.2560 7.0707 -0.3502 1.3658 20.3613 -4.5592 -1.6728 24.4584 10.4785 -2.7663 1.1484 4.3133 -1.9854 -3.2585 0.0000 -0.0000 0.0000 50.4641 -35.1012 15.6573 79.8071 -59.6038 51.1844 -31.3816 -78.3338 -32.0384 0.0 0.0 0.0 -7.1250 0.0 0.0 -61.8702 51.9375 15.4457 0.0000 -0.0000 0.0000 -43.3744 -28.7799 -2.3278 -126.2770 -54.391 -90.825 51.8186 -39.187 -1.6078 0.0 0.0 0.0 7.1250 0.0 -0.0 43.1648 12.1039 53.0083
1.6052 17.5698 -0.5242 1.4523 0.3907 10.3413 0.0000 0.0000 0.0000 -22.6096 -4.0736 -22.1994 2.4516 9.7494 28.1689 1.1908 0.6955 -20.8899 0.4875 -4.4769 -12.4223 0.0000 0.0000 0.0000 2.6102 4.6046 -39.2517 -7.6824 -15.8806 51.4103 1.8384 -23.1808 -7.8043 -0.0326 -1.1661 3.2061 -1.6495 1.7322 -21.7442 -2.2808 3.3120 7.0514 -0.3855 1.3941 20.2986 -4.2255 -1.7225 24.7199 10.4134 -2.7254 0.8719 4.2456 -1.9735 -3.3880 -0.0000 0.0000 0.0000 50.7689 -35.4635 15.465 78.7697 -59.518 50.29 -29.3636 -77.6649 -32.5102 0.0 0.0 0.0 -7.1250 0.0 0.0 -60.9276 52.6141 16.255 -0.0000 0.0000 0.0000 -43.2094 -29.319 -2.6657 -125.6543 -54.6046 -90.3181 50.2864 -38.4904 -2.1519 0.0 0.0 0.0 7.1250 0.0 -0.0 43.1453 13.5161 50.5427
1.6806 17.5819 -0.5487 1.2719 0.3432 10.4212 0.0000 0.0000 0.0000 -22.7051 -4.1527 -22.3670 2.4487 9.7441 28.1519 1.1920 0.7408 -20.9176 0.5338 -4.6815 -13.0023 0.0000 0.0000 0.0000 3.3194 4.2167 -41.4848 -8.0318 -16.1426 52.6770 1.7368 -22.6078 -6.9974 -0.0036 -0.3895 1.0703 -1.6321 1.7887 -21.7472 -2.2985 3.3845 6.9953 -0.3881 1.4294 20.2312 -3.9864 -1.7554 25.1254 10.3714 -2.6775 0.4580 4.2059 -1.9659 -3.5796 -0.0000 0.0000 0.0000 51.0315 -36.0258 15.7413 77.5750 -59.4086 49.261 -28.4216 -76.4497 -32.4188 0.0 0.0 0.0 -7.1250 0.0 0.0 -60.1437 52.7371 16.0998 -0.0000 0.0000 0.0000 -43.2339 -29.7879 -3.0014 -124.7943 -54.8908 -89.6158 49.1014 -38.0243 -2.6102 0.0 0.0 0.0 7.1250 0.0 -0.0 43.0770 14.4128 48.7867
1.7455 17.5850 -0.5733 0.9880 0.3952 10.4965 0.0000 0.0000 0.0000 -22.6158 -4.1739 -22.5609 2.4428 9.7331 28.1166 1.1774 0.4175 -20.6707 0.4315 -4.2157 -11.6844 0.0000 0.0000 0.0000 4.3405 3.8202 -43.4549 -8.3196 -16.3493 53.7057 1.6522 -22.0629 -7.2641 -0.0090 -0.6131 1.6849 -1.6467 1.7860 -21.7941 -2.2369 3.3777 7.0534 -0.3105 1.4174 20.3278 -4.0096 -1.8966 24.4479 10.5317 -2.8902 0.9937 4.2547 -2.0531 -3.3032 -0.0000 0.0000 0.0000 51.3607 -36.7126 16.0876 76.4081 -59.2903 48.2572 -27.5752 -75.3378 -32.3365 0.0 0.0 0.0 -7.1250 0.0 0.0 -59.4326 52.8475 15.9576 -0.0000 0.0000 0.0000 -43.4825 -30.3539 -3.503 -123.8684 -55.1878 -88.8569 47.5083 -37.9884 -2.9415 0.0 0.0 0.0 7.1250 0.0 -0.0 42.9977 15.7198 46.307
1.8095 17.5889 -0.5931 0.6719 0.4850 10.5396 0.0000 0.0000 0.0000 -22.4861 -4.1662 -22.7041 2.4336 9.7162 28.0625 1.1503 0.2208 -20.3616 0.3421 -3.7583 -10.3977 0.0000 0.0000 0.0000 5.4379 3.4277 -45.2476 -8.5448 -16.5057 54.5022 1.5766 -21.5913 -6.9725 -0.0289 -1.0968 3.0153 -1.6212 1.7750 -21.8660 -2.1790 3.3517 7.1606 -0.2656 1.4014 20.5063 -3.7633 -2.0929 23.4204 10.4052 -3.1242 1.6186 4.1581 -2.1227 -2.9528 0.0000 0.0000 0.0000 51.7895 -37.235 16.4183 75.6323 -59.2054 47.5904 -26.7319 -74.6931 -32.3049 0.0 0.0 0.0 -7.1250 0.0 0.0 -58.7696 52.9897 15.8931 0.0000 0.0000 0.0000 -43.8468 -30.8989 -4.0841 -123.0516 -55.4404 -88.1853 46.263 -38.1323 -3.1317 0.0 0.0 0.0 7.1250 0.0 -0.0 42.9044 16.6634 44.4323
1.8746 17.6021 -0.6152 0.4377 0.4599 10.5689 0.0000 0.0000 0.0000 -22.4894 -3.9457 -22.8556 2.4269 9.7037 28.0226 1.1479 0.1908 -20.3302 0.3682 -3.8979 -10.7896 0.0000 0.0000 0.0000 6.3603 3.1573 -47.2392 -8.7185 -16.6231 55.1115 1.5058 -21.2392 -5.4631 -0.0241 -1.0023 2.7551 -1.6355 1.7981 -21.8412 -2.1656 3.3835 7.1507 -0.2310 1.4122 20.4767 -3.8213 -2.0537 23.4013 10.8057 -3.0663 1.6071 4.2906 -2.1169 -2.9578 0.0000 -0.0000 0.0000 52.1174 -37.4371 16.5468 75.1987 -59.1558 47.218 -26.0669 -74.4118 -32.329 0.0 0.0 0.0 -7.1250 0.0 0.0 -58.2924 53.1338 15.9163 0.0000 -0.0000 0.0000 -44.0696 -31.2102 -4.4117 -122.1504 -55.7091 -87.442 45.7891 -37.6562 -3.6865 0.0 0.0 0.0 7.1250 0.0 -0.0 42.7136 16.5081 44.1919
1.9328 17.6068 -0.6378 0.1785 0.4171 10.6154 0.0000 0.0000 0.0000 -22.4307 -3.7139 -22.9216 2.4176 9.6866 27.9676 1.1754 0.0794 -20.5335 0.3464 -3.7819 -10.4639 0.0000 0.0000 0.0000 7.3384 2.9042 -49.1726 -8.8286 -16.6962 55.4955 1.3977 -20.6149 -4.4229 -0.0278 -1.0761 2.9582 -1.6675 1.8238 -21.7898 -2.1393 3.4178 7.0820 -0.1727 1.4223 20.3526 -3.9490 -2.0507 23.4142 11.2066 -3.0870 1.7522 4.4397 -2.1469 -2.9123 0.0000 -0.0000 0.0000 52.3815 -37.7622 16.6292 74.4982 -59.0722 46.6168 -25.6606 -73.9084 -32.159 0.0 0.0 0.0 -7.1250 0.0 0.0 -57.8095 53.1024 15.6403 0.0000 -0.0000 0.0000 -44.2694 -31.3017 -4.7187 -121.2561 -55.9658 -86.702 45.4072 -37.336 -4.1361 0.0 0.0 0.0 7.1250 0.0 -0.0 42.5545 16.3746 44.0004
1.9823 17.6073 -0.6650 -0.1100 0.4312 10.6570 0.0000 0.0000 0.0000 -22.2874 -3.3573 -23.0970 2.4014 9.6564 27.8710 1.1874 -0.2232 -20.5366 0.3195 -3.6333 -10.0471 0.0000 0.0000 0.0000 8.3858 2.7567 -50.8778 -8.8518 -16.7114 55.5760 1.3322 -20.2197 -3.8876 -0.0600 -1.5805 4.3477 -1.7543 1.8108 -21.6355 -2.1053 3.4116 7.0322 -0.0939 1.4089 20.1876 -3.6472 -2.2587 22.7720 10.9949 -3.3398 2.4127 4.3160 -2.2271 -2.6041 0.0000 0.0000 0.0000 52.7314 -38.3867 16.9168 73.5634 -58.9542 45.8155 -25.4061 -73.2413 -31.9441 0.0 0.0 0.0 -7.1250 0.0 0.0 -57.3971 53.0114 15.3012 0.0000 0.0000 0.0000 -44.5503 -31.5775 -5.1525 -120.1816 -56.2614 -85.81 44.9399 -37.1066 -4.4127 0.0 0.0 0.0 7.1250 0.0 -0.0 42.4328 16.4724 43.5284
